<?xml version="1.0" encoding="UTF-8" standalone="no"?>
<svg
   version="1.1"
   viewBox="0 0 269.99999 259.99999"
   id="svg21"
   sodipodi:docname="pig and bear.svg"
   width="270"
   height="260"
   inkscape:version="1.3.2 (091e20e, 2023-11-25)"
   xmlns:inkscape="http://www.inkscape.org/namespaces/inkscape"
   xmlns:sodipodi="http://sodipodi.sourceforge.net/DTD/sodipodi-0.dtd"
   xmlns="http://www.w3.org/2000/svg"
   xmlns:svg="http://www.w3.org/2000/svg">
  <sodipodi:namedview
     id="namedview21"
     pagecolor="#ffffff"
     bordercolor="#000000"
     borderopacity="0.25"
     inkscape:showpageshadow="2"
     inkscape:pageopacity="0.0"
     inkscape:pagecheckerboard="0"
     inkscape:deskcolor="#d1d1d1"
     inkscape:zoom="1.0074152"
     inkscape:cx="380.6772"
     inkscape:cy="238.23345"
     inkscape:window-width="1512"
     inkscape:window-height="839"
     inkscape:window-x="0"
     inkscape:window-y="38"
     inkscape:window-maximized="1"
     inkscape:current-layer="g20" />
  <defs
     id="defs1">
    <style
       id="style1">
      .cls-1, .cls-2 {
        fill: #231f20;
      }

      .cls-3 {
        fill: #fff;
      }

      .cls-3, .cls-2, .cls-4 {
        stroke-miterlimit: 10;
      }

      .cls-3, .cls-4 {
        stroke: #231f20;
      }

      .cls-2 {
        stroke: #fff;
      }

      .cls-4 {
        fill: none;
      }
    </style>
  </defs>
  <!-- Generator: Adobe Illustrator 28.6.0, SVG Export Plug-In . SVG Version: 1.2.0 Build 709)  -->
  <g
     id="g21">
    <g
       id="Layer_1">
      <g
         id="g9">
        <g
           id="g3"
           transform="translate(-76.938445,-71.020103)">
          <path
             class="cls-3"
             d="m 148.9,176.99 c 0,13.67 13.49,24.76 30.13,24.76 16.64,0 30.13,-11.08 30.13,-24.76 0,-2.45 -0.45,-4.59 -0.99,-6.3 -0.43,-1.35 -0.92,-2.43 -1.3,-3.19 -5.04,-10.21 -17.3,-15.61 -27.84,-15.27 -13.42,0.43 -30.13,10.37 -30.13,24.76 z"
             id="path1"
             style="fill:#ffc0ed;fill-opacity:1" />
          <path
             class="cls-4"
             d="m 209.15,174.2 c 1.64,0.94 3.58,0.96 4.86,0 2.09,-1.58 1.84,-5.38 0,-6.65 -0.96,-0.66 -2.58,-0.8 -3.43,0 -2.02,1.9 0.08,9.31 3.11,9.61 1.77,0.17 3.78,-2.11 5.07,-5.07"
             id="path2" />
          <ellipse
             class="cls-3"
             cx="157.17999"
             cy="197.91"
             rx="6.9899998"
             ry="3.8399999"
             id="ellipse2"
             style="fill:#757575;fill-opacity:1" />
          <ellipse
             class="cls-3"
             cx="186.00999"
             cy="199.3"
             rx="6.9899998"
             ry="3.8399999"
             id="ellipse3"
             style="fill:#6e6e6e;fill-opacity:1" />
        </g>
        <g
           id="g8"
           transform="translate(-76.938445,-71.020103)">
          <circle
             class="cls-3"
             cx="139.37"
             cy="143.99001"
             r="28.1"
             id="circle3"
             style="fill:#ffc0ed;fill-opacity:1" />
          <circle
             class="cls-2"
             cx="128.11"
             cy="140.36"
             r="3.75"
             id="circle4" />
          <circle
             class="cls-2"
             cx="151.36"
             cy="140.36"
             r="3.75"
             id="circle5" />
          <ellipse
             class="cls-3"
             cx="139.37"
             cy="156.95"
             rx="15.45"
             ry="4.7199998"
             id="ellipse5"
             style="fill:#ff52cd;fill-opacity:1" />
          <circle
             class="cls-3"
             cx="133.64"
             cy="156.95"
             r="2.52"
             id="circle6"
             style="fill:#ffffff;fill-opacity:1" />
          <circle
             class="cls-3"
             cx="144.55"
             cy="156.95"
             r="2.52"
             id="circle7"
             style="fill:#ffffff;fill-opacity:1" />
          <path
             class="cls-3"
             d="m 116.78,126.92 -0.59,-11.96 10.94,3.74 c 0,0 -3.68,1.55 -10.35,8.22 z"
             id="path7"
             style="fill:#ffc0ed;fill-opacity:1" />
          <path
             class="cls-3"
             d="m 151.52,118.37 11.58,-3.03 -1.42,11.47 c 0,0 -2.28,-3.29 -10.17,-8.44 z"
             id="path8"
             style="fill:#ffc0ed;fill-opacity:1" />
        </g>
      </g>
      <g
         id="g20">
        <g
           id="g12"
           transform="translate(-125.16808,3.7884803)">
          <path
             class="cls-3"
             d="m 349.1,137.35 c 0,14.09 -12.32,23.32 -28.37,23.32 -16.05,0 -26.14,-9.75 -26.14,-23.84 0,-14.09 13.01,-25.51 29.06,-25.51 16.05,0 25.44,11.94 25.44,26.03 z"
             id="path9"
             style="fill:#bf5600;fill-opacity:1" />
          <path
             class="cls-3"
             d="m 342.33,177.6 c 0.56,11.63 0.23,22.3 -21.33,23.56 -17.71,1.03 -26.96,-9.36 -24.05,-22.23 3.94,-17.45 8.99,-22.38 23.84,-23.84 13.78,-1.36 20.89,9.21 21.54,22.51 z"
             id="path10"
             style="fill:#bf5600;fill-opacity:1" />
          <path
             class="cls-3"
             d="m 335.57,149.79 c 0,6.01 -6.65,10.87 -14.85,10.87 -8.2,0 -14.85,-2.7 -14.85,-10.12 0,-6.01 6.65,-11.62 14.85,-11.62 8.2,0 14.85,4.87 14.85,10.87 z"
             id="path11"
             style="fill:#ffc87d;fill-opacity:1" />
          <path
             class="cls-3"
             d="m 333.55,185.48 c -0.73,10.81 -2.4,16.05 -12.96,16.05 -11.4,0 -11.92,-2.72 -13.8,-15.47 -1.25,-8.45 1.46,-16.62 14.85,-16.62 7.74,0 12.55,6.8 11.92,16.05 z"
             id="path12"
             style="fill:#ffc87d;fill-opacity:1" />
        </g>
        <path
           class="cls-3"
           d="m 228.91192,120.95848 c 0,5.28 -3.43,12.43 -10.65,1.6 -2.3,-3.45 -8.4,-4.4 -8.9,-6.52 -1.25,-5.23 4.67,-6.08 9.78,-6.08 5.11,0 9.78,5.71 9.78,10.99 z"
           id="path13"
           style="fill:#bf5600;fill-opacity:1" />
        <path
           class="cls-3"
           d="m 163.62192,122.73848 c 1.2,6.01 6.58,11.52 11.69,1.84 0.94,-1.78 7.56,-4.78 8.07,-6.9 1.25,-5.23 -2.52,-6.02 -7.63,-6.02 -5.11,0 -13.17,5.9 -12.13,11.08 z"
           id="path14"
           style="fill:#bf5600;fill-opacity:1" />
        <circle
           class="cls-1"
           cx="208.56194"
           cy="135.51848"
           r="3.3399999"
           id="circle14" />
        <circle
           class="cls-1"
           cx="185.03194"
           cy="135.51848"
           r="3.3399999"
           id="circle15" />
        <g
           id="g16"
           transform="translate(-125.16808,3.7884803)">
          <path
             class="cls-4"
             d="m 327.24,144.14 c 0.12,1.69 -2.42,3.07 -5.4,3.07 -2.98,0 -4.9,-1.45 -5.4,-3.07 -0.72,-2.34 1.57,-3.94 4.81,-3.97 4.25,-0.04 5.83,1.68 5.99,3.97 z"
             id="path15" />
          <line
             class="cls-4"
             x1="321.84"
             y1="147.21001"
             x2="321.78"
             y2="154.95"
             id="line15" />
          <path
             class="cls-4"
             d="m 314.7,150.69 c 0,0 7.11,9.06 13.31,0"
             id="path16" />
        </g>
        <path
           class="cls-3"
           d="m 231.60192,167.84848 c 0.19,8.26 -3.4,7.31 -8.92,8.4 -6.69,1.32 -5.69,-4.76 -8.22,-8.4 -5.16,-7.42 3.83,-6.03 8.57,-6.17 4.73,-0.14 8.49,2.76 8.57,6.17 z"
           id="path17"
           style="fill:#bf5600;fill-opacity:1" />
        <path
           class="cls-3"
           d="m 175.93192,170.78848 c -2.22,2.91 -1.44,5.48 -9.17,4.09 -6.87,-1.23 -6.87,-2.96 -6.87,-6.62 0,-3.66 3.04,-7.27 6.83,-7.18 7.18,0.16 18.33,-2.27 9.2,9.71 z"
           id="path18"
           style="fill:#bf5600;fill-opacity:1" />
        <path
           class="cls-3"
           d="m 184.05192,204.03849 c 0.85,0.37 -3.62,12.34 -8.64,12.34 -4.5,0 -10.09,-2.15 -10.09,-7.67 0,-5.52 6.61,-12.4 7.3,-13.31 0.48,-0.62 3.53,5.2 11.43,8.64 z"
           id="path19"
           style="fill:#bf5600;fill-opacity:1" />
        <path
           class="cls-3"
           d="m 223.68192,206.54849 c 0,4.85 -5.89,8.36 -10.05,8.36 -4.16,0 -10.99,-10.4 -9.26,-11.15 7.88,-3.42 8.85,-5.85 11.64,-8.71 0.8,-0.82 7.67,6.65 7.67,11.5 z"
           id="path20"
           style="fill:#bf5600;fill-opacity:1" />
      </g>
    </g>
  </g>
</svg>
