<?xml version="1.0" encoding="UTF-8" standalone="no"?>
<svg
   version="1.1"
   viewBox="0 0 396.27997 422.89"
   id="svg6"
   sodipodi:docname="shape matching.svg"
   width="396.28"
   height="422.89001"
   inkscape:version="1.3.2 (091e20e, 2023-11-25)"
   xmlns:inkscape="http://www.inkscape.org/namespaces/inkscape"
   xmlns:sodipodi="http://sodipodi.sourceforge.net/DTD/sodipodi-0.dtd"
   xmlns="http://www.w3.org/2000/svg"
   xmlns:svg="http://www.w3.org/2000/svg">
  <sodipodi:namedview
     id="namedview6"
     pagecolor="#ffffff"
     bordercolor="#000000"
     borderopacity="0.25"
     inkscape:showpageshadow="2"
     inkscape:pageopacity="0.0"
     inkscape:pagecheckerboard="0"
     inkscape:deskcolor="#d1d1d1"
     showguides="false"
     inkscape:zoom="0.92162477"
     inkscape:cx="238.16634"
     inkscape:cy="282.11047"
     inkscape:window-width="1512"
     inkscape:window-height="839"
     inkscape:window-x="0"
     inkscape:window-y="38"
     inkscape:window-maximized="1"
     inkscape:current-layer="Layer_1" />
  <defs
     id="defs1">
    <style
       id="style1">
      .cls-1 {
        fill: #fff;
        stroke: #231f20;
        stroke-miterlimit: 10;
      }
    </style>
  </defs>
  <!-- Generator: Adobe Illustrator 28.6.0, SVG Export Plug-In . SVG Version: 1.2.0 Build 709)  -->
  <g
     id="g6">
    <g
       id="Layer_1">
      <rect
         class="cls-1"
         x="223.19913"
         y="46.629112"
         width="110.02216"
         height="143.52734"
         id="rect2"
         style="fill:#f2f82b;fill-opacity:1;stroke-width:1.61266" />
      <rect
         class="cls-1"
         x="223.19913"
         y="226.85379"
         width="110.02216"
         height="143.52734"
         id="rect4"
         style="fill:#f2f82b;fill-opacity:1;stroke-width:1.61266" />
      <polygon
         class="cls-1"
         points="132.4,156.41 139.13,177.14 121.5,164.32 103.87,177.14 110.6,156.41 92.97,143.59 114.76,143.59 121.5,122.86 128.24,143.59 150.03,143.59 "
         id="polygon4"
         transform="matrix(1.5945242,0,0,1.6309925,-113.26457,-42.707994)"
         style="fill:#ff4040;fill-opacity:1" />
      <polygon
         class="cls-1"
         points="257.03,254.09 239.4,266.91 246.13,287.64 228.5,274.82 210.87,287.64 217.6,266.91 199.97,254.09 221.76,254.09 228.5,233.36 235.24,254.09 "
         id="polygon5"
         transform="matrix(1.5945242,0,0,1.6309925,-86.138563,-126.2561)" />
      <line
         class="cls-1"
         x1="110.32926"
         y1="218.44467"
         x2="222.31009"
         y2="290.28925"
         id="line5"
         style="stroke-width:1.20858" />
      <polygon
         class="cls-1"
         points="240.95,175.83 214.43,175.83 201.17,152.86 214.43,129.9 240.95,129.9 254.21,152.86 "
         id="polygon6"
         transform="matrix(1.5945242,0,0,1.6309925,-86.138563,-126.2561)" />
    </g>
  </g>
</svg>
